<?xml version="1.0" standalone="no"?>
<!DOCTYPE svg PUBLIC "-//W3C//DTD SVG 20010904//EN"
 "http://www.w3.org/TR/2001/REC-SVG-20010904/DTD/svg10.dtd">
<svg version="1.0" xmlns="http://www.w3.org/2000/svg"
 width="420.000000pt" height="420.000000pt" viewBox="0 0 420.000000 420.000000"
 preserveAspectRatio="xMidYMid meet">
<metadata>
Created by potrace 1.14, written by Peter Selinger 2001-2017
</metadata>
<g transform="translate(0.000000,420.000000) scale(0.100000,-0.100000)"
fill="#000000" stroke="none">
<path d="M1905 3630 c-216 -33 -358 -103 -412 -202 -25 -46 -33 -53 -73 -63
-25 -7 -61 -20 -80 -30 -43 -21 -190 -169 -190 -190 0 -8 -4 -15 -9 -15 -9 0
-48 -92 -56 -130 -2 -8 -4 -15 -5 -15 -2 0 -6 -18 -19 -84 -25 -123 -31 -284
-17 -426 3 -38 9 -101 12 -139 3 -38 13 -88 24 -110 13 -29 15 -42 7 -45 -38
-12 -65 -71 -68 -146 -1 -35 10 -166 16 -174 1 -3 6 -24 9 -46 12 -76 36 -142
61 -170 23 -24 32 -27 68 -22 l42 5 55 -90 c34 -56 88 -124 142 -179 83 -84
86 -89 63 -95 -29 -7 -84 -67 -86 -92 -3 -37 3 -68 16 -88 12 -18 12 -25 1
-40 -22 -30 1 -80 36 -75 4 0 11 -14 17 -32 15 -44 42 -65 101 -79 28 -6 50
-15 50 -20 0 -14 64 -48 91 -48 14 0 35 9 47 20 14 14 35 20 66 20 35 0 50 6
75 29 30 28 36 47 31 100 -1 13 2 21 8 17 5 -3 19 4 30 15 21 19 23 24 26 59
1 9 10 14 21 13 24 -3 151 -3 185 0 20 2 25 -3 26 -23 1 -14 14 -35 32 -50 24
-20 30 -32 28 -59 -2 -26 5 -41 30 -67 30 -33 57 -41 117 -35 9 1 17 -2 17 -7
0 -17 57 -34 89 -27 17 4 40 19 51 35 14 20 27 28 41 25 38 -8 100 33 116 75
9 22 18 39 22 38 19 -2 29 5 39 27 7 15 8 27 2 30 -13 8 -13 52 -1 60 9 5 10
12 11 67 1 45 -33 90 -82 109 l-27 11 80 81 c106 109 109 112 109 125 0 7 4
12 9 12 5 0 15 12 22 28 8 15 25 46 39 69 24 41 26 42 67 36 28 -4 48 -1 59 8
21 17 50 83 60 134 4 22 8 45 10 50 36 147 33 279 -8 337 -11 16 -17 31 -15
35 3 5 8 24 11 43 3 19 7 44 10 55 18 90 27 397 15 510 -15 133 -68 280 -146
409 -31 51 -119 156 -153 183 -8 6 -30 25 -49 42 -19 17 -38 31 -41 31 -4 0
-17 9 -30 20 -13 11 -29 20 -36 20 -7 0 -14 3 -16 8 -3 8 -104 62 -128 68 -8
2 -40 12 -71 23 -31 11 -69 23 -85 25 -16 3 -40 9 -54 12 -60 16 -336 12 -455
-6z"/>
</g>
</svg>
